<?xml version="1.0" encoding="utf-8"?><svg version="1.1" id="Layer_1" xmlns="http://www.w3.org/2000/svg" xmlns:xlink="http://www.w3.org/1999/xlink" x="0px" y="0px" width="122.879px" height="96.568px" viewBox="0 0 122.879 96.568" enable-background="new 0 0 122.879 96.568" xml:space="preserve"><g><path d="M5.535,15.447h98.221c1.527,0,2.891,0.62,3.883,1.611c0.99,0.991,1.611,2.396,1.611,3.882v70.134 c0,1.528-0.621,2.891-1.611,3.883c-0.082,0.082-0.166,0.165-0.289,0.247c-0.951,0.868-2.23,1.363-3.635,1.363H5.494 c-1.528,0-2.892-0.619-3.883-1.61S0,92.562,0,91.075V20.941c0-1.528,0.62-2.891,1.611-3.882s2.396-1.611,3.883-1.611H5.535 L5.535,15.447z M28.218,34.489c4.354,0,7.882,3.528,7.882,7.882s-3.528,7.883-7.882,7.883c-4.354,0-7.882-3.529-7.882-7.883 C20.335,38.018,23.864,34.489,28.218,34.489L28.218,34.489z M61.389,68.316l15.766-27.258l16.748,42.363l-78.165-0.001v-5.254 l6.57-0.327l6.567-16.093l3.282,11.496h9.855l8.537-22.004L61.389,68.316L61.389,68.316z M21.891,6.525 c-1.817,0-3.263-1.486-3.263-3.263C18.628,1.445,20.115,0,21.891,0h97.726c1.816,0,3.262,1.487,3.262,3.263v68.895 c0,1.818-1.486,3.264-3.262,3.264c-1.818,0-3.264-1.487-3.264-3.264V6.567H21.891V6.525L21.891,6.525z M102.723,21.974H6.567 v68.027h96.155V21.974L102.723,21.974z"/></g></svg>