<?xml version="1.0" encoding="utf-8"?><svg version="1.1" id="Layer_1" xmlns="http://www.w3.org/2000/svg" xmlns:xlink="http://www.w3.org/1999/xlink" x="0px" y="0px" viewBox="0 0 122.88 96.67" style="enable-background:new 0 0 122.88 96.67" xml:space="preserve"><g><path d="M19.05,50.25c0.83-0.01,1.62,0.23,2.28,0.65l-0.02-1.12c-0.02-1.15,0.44-2.19,1.19-2.95c0.75-0.76,1.78-1.24,2.93-1.26 c0,0,0,0,0.01,0c0.85-0.01,1.68,0.24,2.39,0.72l-0.01-0.9c-0.02-1.15,0.44-2.19,1.19-2.95c0.75-0.76,1.78-1.24,2.93-1.26 s2.19,0.44,2.95,1.19c0.76,0.75,1.24,1.78,1.26,2.93v0.91c0.66-0.46,1.46-0.74,2.32-0.75c1.15-0.02,2.19,0.44,2.95,1.19 c0.76,0.75,1.24,1.78,1.26,2.93l0.24,15.2c0.06,0.35,0.09,0.69,0.09,1.04l0,0l0.02,1.16l0.1-0.1c0.71-0.68,1.4-1.39,1.66-1.66 c1.75-1.8,3.66-2.2,5.18-1.73c0.68,0.21,1.29,0.59,1.76,1.1c0.47,0.5,0.82,1.14,1,1.84c0.42,1.68-0.09,3.8-2.16,5.69 c-3.38,3.38-5.56,7.27-9.64,10.28l0.13,1.13h0.09l1.01,7.89H17.08l1.14-7.89h0.12l0.17-1.22c-1.3-2.79-3.24-5.3-3.28-8.36 c-0.1-8.02-0.19-11.46-0.29-19.48c-0.02-1.15,0.44-2.19,1.19-2.95C16.87,50.75,17.9,50.27,19.05,50.25L19.05,50.25L19.05,50.25 L19.05,50.25z M95.03,55.5c-0.83-0.01-1.62,0.23-2.28,0.65l0.02-1.12c0.02-1.15-0.44-2.19-1.19-2.95 c-0.75-0.76-1.78-1.24-2.93-1.26c0,0,0,0-0.01,0c-0.85-0.01-1.68,0.24-2.39,0.72l0.01-0.9c0.02-1.15-0.44-2.19-1.19-2.95 s-1.78-1.24-2.93-1.26c-1.15-0.02-2.19,0.44-2.95,1.19c-0.76,0.74-1.24,1.78-1.26,2.93v0.91c-0.66-0.46-1.46-0.74-2.32-0.75 c-1.15-0.02-2.19,0.44-2.95,1.19c-0.76,0.75-1.24,1.78-1.26,2.93l-0.24,15.2c-0.05,0.34-0.09,0.69-0.09,1.04l0,0l-0.02,1.16 l-0.1-0.1c-0.71-0.68-1.4-1.39-1.66-1.66c-1.75-1.8-3.66-2.2-5.18-1.74c-0.68,0.21-1.29,0.59-1.76,1.1c-0.47,0.5-0.82,1.14-1,1.84 c-0.42,1.68,0.09,3.8,2.16,5.69c3.38,3.38,5.56,7.27,9.64,10.28l-0.13,1.13h-0.09l-1.01,7.89h25.05l-1.13-7.89h-0.12l-0.17-1.23 c1.3-2.79,3.24-5.3,3.28-8.36c0.1-8.02,0.2-11.46,0.29-19.48c0.02-1.15-0.44-2.19-1.19-2.95C97.21,55.99,96.18,55.51,95.03,55.5 L95.03,55.5L95.03,55.5L95.03,55.5z M95.06,12.24c0.08-1.55,0.32-3.09,0.55-4.66c0.5-3.3,1.01-1.88-0.11-5.02 c-0.36-0.99,0.16-2.09,1.15-2.44c0.99-0.36,2.09,0.16,2.44,1.15c1.46,4.07,0.88,3.12,0.31,6.88c-0.21,1.39-0.42,2.76-0.5,4.09l0,0 c0.99,0,1.89,0.4,2.54,1.05c0.05,0.05,0.1,0.1,0.14,0.16c0.57,0.64,0.91,1.47,0.91,2.38v0.19h11.33c2.49,0,4.76,1.02,6.4,2.66 c1.64,1.64,2.66,3.91,2.66,6.4v41.35c0,2.49-1.02,4.76-2.66,6.4c-1.64,1.64-3.91,2.66-6.4,2.66h-11.64 c0.02-1.37,0.04-2.62,0.06-3.82h11.58c1.44,0,2.74-0.59,3.69-1.54s1.54-2.25,1.54-3.69V25.09c0-1.44-0.59-2.74-1.54-3.69 c-0.95-0.95-2.25-1.54-3.69-1.54h-13.24c-1.06,0-1.92-0.86-1.92-1.92v-1.87h-4.49v1.87c0,1.06-0.86,1.92-1.92,1.92l0,0H9.06 c-1.44,0-2.74,0.59-3.69,1.54s-1.54,2.25-1.54,3.69v41.35c0,1.44,0.59,2.74,1.54,3.69s2.25,1.54,3.69,1.54h2.85l0.03,2.3 c0.01,0.53,0.05,1.03,0.12,1.52h-3c-2.49,0-4.76-1.02-6.4-2.66C1.02,71.2,0,68.93,0,66.44V25.09c0-2.49,1.02-4.76,2.66-6.4 s3.91-2.66,6.4-2.66h81.27v-0.19c0-0.98,0.4-1.88,1.05-2.53l0,0l0,0l0,0c0.65-0.65,1.55-1.05,2.53-1.05h1.15V12.24L95.06,12.24z M58.41,75.49h-6.52c0.31-0.34,0.64-0.68,0.98-1.02l-0.01-0.01c0.95-0.89,1.67-1.83,2.19-2.79h2.98 C57.85,72.88,57.96,74.18,58.41,75.49L58.41,75.49z M12.26,25.75h7.75c1.06,0,1.92,0.86,1.92,1.92v6.54c0,1.06-0.86,1.92-1.92,1.92 h-7.75c-1.06,0-1.92-0.86-1.92-1.92v-6.54C10.34,26.61,11.2,25.75,12.26,25.75L12.26,25.75L12.26,25.75z M27.61,25.75h7.75 c1.06,0,1.92,0.86,1.92,1.92v6.54c0,1.06-0.86,1.92-1.92,1.92h-7.75c-1.06,0-1.92-0.86-1.92-1.92v-6.54 C25.69,26.61,26.55,25.75,27.61,25.75L27.61,25.75L27.61,25.75z M42.97,25.75h7.75c1.06,0,1.92,0.86,1.92,1.92v6.54 c0,1.06-0.86,1.92-1.92,1.92h-7.75c-1.06,0-1.92-0.86-1.92-1.92v-6.54C41.05,26.61,41.91,25.75,42.97,25.75L42.97,25.75 L42.97,25.75z M58.33,25.75h7.75c1.06,0,1.92,0.86,1.92,1.92v6.54c0,1.06-0.86,1.92-1.92,1.92h-7.75c-1.06,0-1.92-0.86-1.92-1.92 v-6.54C56.41,26.61,57.26,25.75,58.33,25.75L58.33,25.75L58.33,25.75z M73.69,25.75h7.75c1.06,0,1.92,0.86,1.92,1.92v6.54 c0,1.06-0.86,1.92-1.92,1.92h-7.75c-1.06,0-1.92-0.86-1.92-1.92v-6.54C71.77,26.61,72.63,25.75,73.69,25.75L73.69,25.75 L73.69,25.75z M89.04,25.75h7.75c1.06,0,1.92,0.86,1.92,1.92v6.54c0,1.06-0.86,1.92-1.92,1.92h-7.75c-1.06,0-1.92-0.86-1.92-1.92 v-6.54C87.13,26.61,87.99,25.75,89.04,25.75L89.04,25.75L89.04,25.75z M104.4,25.75h7.75c1.06,0,1.92,0.86,1.92,1.92v6.54 c0,1.06-0.86,1.92-1.92,1.92h-7.75c-1.06,0-1.92-0.86-1.92-1.92v-6.54C102.48,26.61,103.34,25.75,104.4,25.75L104.4,25.75 L104.4,25.75z M104.4,39.87h7.75c1.06,0,1.92,0.87,1.92,1.94v20.68c0,1.07-0.86,1.94-1.92,1.94h-7.75c-1.06,0-1.92-0.87-1.92-1.94 V41.81C102.48,40.74,103.34,39.87,104.4,39.87L104.4,39.87L104.4,39.87z M12.26,40.04h7.75c1.06,0,1.92,0.86,1.92,1.92v1.24 c-0.66,0.36-1.26,0.81-1.78,1.35c-0.68,0.7-1.23,1.53-1.6,2.45c-1.87,0.15-3.54,0.98-4.77,2.24c-0.35,0.36-0.67,0.76-0.95,1.19 h-0.57c-1.06,0-1.92-0.86-1.92-1.92v-6.54C10.34,40.9,11.2,40.04,12.26,40.04L12.26,40.04L12.26,40.04z M42.97,40.04h7.75 c1.06,0,1.92,0.86,1.92,1.92v6.54c0,1.06-0.86,1.92-1.92,1.92h-4.74l-0.01-0.84c-0.01-1.02-0.23-1.98-0.6-2.85 c-0.39-0.91-0.96-1.73-1.65-2.41c-0.7-0.69-1.53-1.24-2.45-1.61c-0.07-0.03-0.14-0.06-0.22-0.08v-0.68 C41.05,40.9,41.91,40.04,42.97,40.04L42.97,40.04L42.97,40.04z M58.33,40.04h7.75c1.06,0,1.92,0.86,1.92,1.92v6.54 c0,1.06-0.86,1.92-1.92,1.92h-7.75c-1.06,0-1.92-0.86-1.92-1.92v-6.54C56.41,40.9,57.26,40.04,58.33,40.04L58.33,40.04L58.33,40.04 z M73.69,40.04h7.75c1.06,0,1.92,0.86,1.92,1.92v1.31c-0.38-0.06-0.77-0.1-1.17-0.1c-1.02-0.01-1.98,0.18-2.86,0.53 c-0.92,0.37-1.75,0.92-2.46,1.61c-0.62,0.61-1.14,1.33-1.52,2.14c-0.9,0.03-1.75,0.21-2.54,0.53c-0.36,0.15-0.71,0.32-1.04,0.52 v-6.52C71.77,40.9,72.63,40.04,73.69,40.04L73.69,40.04L73.69,40.04z M89.04,40.04h7.75c1.06,0,1.92,0.86,1.92,1.92v6.54 c0,1.06-0.86,1.92-1.92,1.92h-2.3c-0.17-0.22-0.36-0.43-0.55-0.63c-0.68-0.69-1.5-1.26-2.41-1.65c-0.8-0.34-1.68-0.55-2.61-0.59 c-0.36-0.8-0.86-1.52-1.47-2.14c-0.11-0.11-0.21-0.21-0.33-0.31v-3.13C87.13,40.9,87.99,40.04,89.04,40.04L89.04,40.04L89.04,40.04 z M11.8,64.5c-0.84-0.21-1.46-0.96-1.46-1.87V56.1c0-0.85,0.55-1.57,1.31-1.82c0,0.09,0,0.17,0,0.26c0.05,4.08,0.1,6.94,0.15,9.81 L11.8,64.5L11.8,64.5z M46.04,54.18h20.05c1.05,0,1.9,0.86,1.9,1.92v6.54c0,1.06-0.85,1.92-1.9,1.92H55.54 c-0.1-0.24-0.21-0.48-0.34-0.7c-0.28-0.52-0.63-1.01-1.02-1.45l-0.07-0.08c-0.44-0.48-0.94-0.89-1.49-1.23 c-0.52-0.33-1.11-0.59-1.74-0.79l0,0l-0.01,0c-1.44-0.44-3.04-0.45-4.67,0.09l-0.07,0.02L46.04,54.18L46.04,54.18z M75.08,88.78 l0.21-1.59l0,0c-3.64-3.08-8.99-9.69-10.36-11.1c-0.03-0.03-0.06-0.06-0.09-0.09c-1.05-0.95-2-2.4-1.63-3.88 c0.1-0.39,0.29-0.74,0.54-1.01c0.25-0.27,0.56-0.47,0.93-0.58c0.9-0.27,2.09,0.03,3.28,1.25c0.28,0.28,1,1.02,1.7,1.7 c0.67,0.64,1.35,1.26,1.8,1.51c0.15,0.1,0.33,0.17,0.52,0.17l0,0l0.75-0.35l0.27-3.72c0.09-6.97,0.22-9.25,0.3-16.24 c0.01-0.62,0.27-1.18,0.69-1.59c0.42-0.41,0.99-0.65,1.61-0.64c0.62,0.01,1.19,0.27,1.59,0.68s0.66,0.99,0.65,1.61l-0.16,13.57 l1.96,0.02l0.22-17.93c0.01-0.62,0.27-1.18,0.68-1.59c0.42-0.41,0.99-0.66,1.61-0.65c0.62,0.01,1.19,0.27,1.59,0.69 c0.41,0.42,0.66,0.99,0.65,1.61l-0.21,17.92l2,0.02l0.16-13.61c0.01-0.62,0.27-1.19,0.69-1.59c0.41-0.41,0.98-0.65,1.6-0.64 c0.62,0.01,1.19,0.27,1.59,0.69c0.41,0.42,0.66,0.99,0.65,1.61l-0.17,13.61l1.89,0.02l0.11-9c0.01-0.62,0.27-1.19,0.68-1.59 s0.99-0.66,1.61-0.65c0.62,0.01,1.19,0.27,1.59,0.69c0.41,0.42,0.65,0.99,0.64,1.61l-0.11,9c-0.06,5.02-0.12,5.46-0.18,10.48 c-0.02,2.1-2.22,5.83-3.17,7.86c-0.08,0.16-0.1,0.34-0.08,0.51l0,0l0.18,1.24H75.08L75.08,88.78z M39,83.54l-0.21-1.59l0,0 c3.64-3.08,8.99-9.69,10.35-11.1c0.03-0.03,0.06-0.06,0.09-0.09c1.05-0.95,2-2.4,1.63-3.88c-0.1-0.39-0.29-0.74-0.54-1.01 c-0.25-0.28-0.56-0.47-0.93-0.58c-0.9-0.28-2.09,0.03-3.28,1.25c-0.27,0.28-1,1.02-1.7,1.7c-0.67,0.64-1.35,1.26-1.8,1.52 c-0.15,0.1-0.33,0.16-0.52,0.16l0,0l-0.75-0.35l-0.27-3.72c-0.09-6.97-0.22-9.24-0.3-16.24c-0.01-0.62-0.27-1.19-0.69-1.59 c-0.42-0.41-0.99-0.65-1.61-0.64c-0.62,0.01-1.19,0.27-1.59,0.68c-0.41,0.42-0.66,0.99-0.65,1.61l0.17,13.56l-1.95,0.02 l-0.22-17.93c-0.01-0.62-0.27-1.19-0.68-1.59c-0.42-0.41-0.99-0.66-1.61-0.65c-0.62,0.01-1.19,0.27-1.59,0.69 c-0.41,0.42-0.66,0.99-0.65,1.61l0.21,17.92l-2,0.02L27.74,49.7c-0.01-0.62-0.27-1.18-0.69-1.59c-0.41-0.41-0.98-0.65-1.6-0.64 c-0.62,0.01-1.19,0.27-1.59,0.69c-0.41,0.42-0.66,0.99-0.65,1.61l0.17,13.61l-1.89,0.02l-0.11-9c-0.01-0.62-0.27-1.19-0.68-1.59 c-0.42-0.41-0.99-0.66-1.61-0.65s-1.19,0.27-1.59,0.69c-0.41,0.42-0.65,0.99-0.64,1.61l0.11,9c0.06,5.02,0.12,5.46,0.18,10.48 c0.02,2.1,2.22,5.83,3.17,7.86c0.08,0.17,0.1,0.35,0.08,0.51l0,0l-0.18,1.24H39L39,83.54z"/></g></svg>