<svg xmlns="http://www.w3.org/2000/svg"
     shape-rendering="geometricPrecision"
     text-rendering="geometricPrecision"
     image-rendering="optimizeQuality"
     fill-rule="evenodd"
     clip-rule="evenodd"
     viewBox="0 0 399 512.34">
	<path fill="red" fill-rule="nonzero"
	      d="m0 84.87.03-.01c0-4.73 3.84-8.57 8.58-8.57h223.02V8.59c.02-1.96.69-3.94 2.05-5.55 3.06-3.62 8.48-4.07 12.1-1.01l150.06 127.4c.4.33.77.69 1.11 1.1 3.06 3.62 2.61 9.04-1.01 12.1L246.21 269.75a8.584 8.584 0 0 1-5.97 2.41 8.61 8.61 0 0 1-8.61-8.61v-67.67H119.62v32.96c-.03 2.42-1.04 4.83-3.03 6.52L14.65 322.62a8.543 8.543 0 0 1-6.04 2.48c-4.75 0-8.61-3.85-8.61-8.6V84.87zm399 342.6-.03.01c0 4.73-3.84 8.57-8.58 8.57H167.37v67.71a8.696 8.696 0 0 1-2.05 5.54c-3.06 3.62-8.48 4.07-12.1 1.01L3.16 382.91c-.4-.33-.77-.69-1.11-1.09-3.06-3.62-2.61-9.05 1.01-12.11L152.79 242.6a8.584 8.584 0 0 1 5.97-2.41c4.75 0 8.61 3.85 8.61 8.6v67.67h112.01V283.5a8.703 8.703 0 0 1 3.03-6.52l101.94-87.26a8.604 8.604 0 0 1 6.04-2.48 8.61 8.61 0 0 1 8.61 8.61v231.62zm-17.21-8.57V214.52l-85.2 72.91v37.64a8.6 8.6 0 0 1-8.6 8.6H158.76a8.6 8.6 0 0 1-8.6-8.6v-57.7L21.88 376.27l128.28 108.91v-57.71a8.6 8.6 0 0 1 8.6-8.6l223.03.03zM17.21 93.44v204.39l85.2-72.92v-37.63c0-4.76 3.85-8.61 8.6-8.61h129.23a8.61 8.61 0 0 1 8.61 8.61v57.7l128.27-108.91L248.85 27.16v57.71c0 4.75-3.86 8.6-8.61 8.6l-223.03-.03z"/>
</svg>